<mxfile host="Electron" agent="Mozilla/5.0 (Macintosh; Intel Mac OS X 10_15_7) AppleWebKit/537.36 (KHTML, like Gecko) draw.io/24.7.8 Chrome/128.0.6613.36 Electron/32.0.1 Safari/537.36" version="24.7.8">
  <diagram name="Page-1" id="0jqFInCVG3ZnujKd56sM">
    <mxGraphModel dx="984" dy="633" grid="1" gridSize="10" guides="1" tooltips="1" connect="1" arrows="1" fold="1" page="1" pageScale="1" pageWidth="827" pageHeight="1169" math="0" shadow="0">
      <root>
        <mxCell id="0" />
        <mxCell id="1" parent="0" />
        <mxCell id="m1klk2LPo-NgVJAAAtqn-36" style="rounded=0;orthogonalLoop=1;jettySize=auto;html=1;shape=flexArrow;endSize=10;startSize=10;targetPerimeterSpacing=10;sourcePerimeterSpacing=10;width=40;fillColor=#e51400;strokeColor=#B20000;" parent="1" source="m1klk2LPo-NgVJAAAtqn-16" target="m1klk2LPo-NgVJAAAtqn-35" edge="1">
          <mxGeometry relative="1" as="geometry" />
        </mxCell>
        <mxCell id="m1klk2LPo-NgVJAAAtqn-16" value="Batch of Asset Orders" style="shape=umlFrame;whiteSpace=wrap;html=1;pointerEvents=0;width=150;height=40;swimlaneFillColor=#FFCCCC;" parent="1" vertex="1">
          <mxGeometry x="1050" y="320" width="300" height="560" as="geometry" />
        </mxCell>
        <mxCell id="m1klk2LPo-NgVJAAAtqn-15" value="Batch of Index Orders" style="shape=umlFrame;whiteSpace=wrap;html=1;pointerEvents=0;width=150;height=40;swimlaneFillColor=#D4E1F5;" parent="1" vertex="1">
          <mxGeometry x="320" y="320" width="300" height="560" as="geometry" />
        </mxCell>
        <mxCell id="m1klk2LPo-NgVJAAAtqn-3" value="Index Order&lt;div&gt;&lt;ul&gt;&lt;li&gt;Mary wants to&lt;/li&gt;&lt;li&gt;Buy SYAI for $1000&lt;/li&gt;&lt;/ul&gt;&lt;/div&gt;" style="whiteSpace=wrap;html=1;shape=mxgraph.basic.document;align=left;spacingLeft=0;spacingTop=0;spacingRight=0;spacingBottom=0;spacing=10;verticalAlign=top;" parent="1" vertex="1">
          <mxGeometry x="375" y="404" width="190" height="90" as="geometry" />
        </mxCell>
        <mxCell id="m1klk2LPo-NgVJAAAtqn-12" style="rounded=0;orthogonalLoop=1;jettySize=auto;html=1;shape=flexArrow;targetPerimeterSpacing=10;sourcePerimeterSpacing=10;endSize=12.08235294117647;startSize=10;width=38.82352941176471;fillColor=#e51400;strokeColor=#B20000;" parent="1" source="m1klk2LPo-NgVJAAAtqn-15" target="m1klk2LPo-NgVJAAAtqn-10" edge="1">
          <mxGeometry relative="1" as="geometry" />
        </mxCell>
        <mxCell id="m1klk2LPo-NgVJAAAtqn-17" style="rounded=0;orthogonalLoop=1;jettySize=auto;html=1;shape=flexArrow;targetPerimeterSpacing=10;sourcePerimeterSpacing=10;endSize=12.807692307692307;startSize=10;width=40;fillColor=#e51400;strokeColor=#B20000;" parent="1" source="m1klk2LPo-NgVJAAAtqn-10" target="m1klk2LPo-NgVJAAAtqn-16" edge="1">
          <mxGeometry relative="1" as="geometry" />
        </mxCell>
        <mxCell id="m1klk2LPo-NgVJAAAtqn-10" value="&lt;h2&gt;Batch Processing&lt;/h2&gt;" style="outlineConnect=0;dashed=0;verticalLabelPosition=bottom;verticalAlign=top;align=center;html=1;shape=mxgraph.aws3.router;fillColor=#4D4D4D;gradientColor=none;" parent="1" vertex="1">
          <mxGeometry x="740" y="508" width="180.17" height="188" as="geometry" />
        </mxCell>
        <mxCell id="m1klk2LPo-NgVJAAAtqn-14" value="Asset Order&lt;div&gt;&lt;ul&gt;&lt;li&gt;Buy TAO&lt;/li&gt;&lt;li&gt;in computed Quantity &amp;amp; Price&lt;/li&gt;&lt;/ul&gt;&lt;/div&gt;" style="whiteSpace=wrap;html=1;shape=mxgraph.basic.document;align=left;spacingLeft=0;spacingTop=0;spacingRight=0;spacingBottom=0;spacing=10;verticalAlign=top;" parent="1" vertex="1">
          <mxGeometry x="1087.5" y="392" width="225" height="88" as="geometry" />
        </mxCell>
        <mxCell id="m1klk2LPo-NgVJAAAtqn-18" value="Asset Order&lt;div&gt;&lt;ul&gt;&lt;li&gt;Buy NEAR&lt;/li&gt;&lt;li&gt;in computed Quantity &amp;amp; Price&lt;/li&gt;&lt;/ul&gt;&lt;/div&gt;" style="whiteSpace=wrap;html=1;shape=mxgraph.basic.document;align=left;spacingLeft=0;spacingTop=0;spacingRight=0;spacingBottom=0;spacing=10;verticalAlign=top;" parent="1" vertex="1">
          <mxGeometry x="1087.5" y="508" width="222.5" height="92" as="geometry" />
        </mxCell>
        <mxCell id="m1klk2LPo-NgVJAAAtqn-20" value="Index Order&lt;div&gt;&lt;ul&gt;&lt;li&gt;Bob wants to&lt;/li&gt;&lt;li&gt;Buy SYAI for $2000&lt;/li&gt;&lt;/ul&gt;&lt;/div&gt;" style="whiteSpace=wrap;html=1;shape=mxgraph.basic.document;align=left;spacingLeft=0;spacingTop=0;spacingRight=0;spacingBottom=0;spacing=10;verticalAlign=top;" parent="1" vertex="1">
          <mxGeometry x="375" y="520" width="190" height="90" as="geometry" />
        </mxCell>
        <mxCell id="m1klk2LPo-NgVJAAAtqn-21" value="Index Order&lt;div&gt;&lt;ul&gt;&lt;li&gt;John wants to&lt;/li&gt;&lt;li&gt;Buy SYAZ for $500&lt;/li&gt;&lt;/ul&gt;&lt;/div&gt;" style="whiteSpace=wrap;html=1;shape=mxgraph.basic.document;align=left;spacingLeft=0;spacingTop=0;spacingRight=0;spacingBottom=0;spacing=10;verticalAlign=top;" parent="1" vertex="1">
          <mxGeometry x="375" y="636" width="190" height="90" as="geometry" />
        </mxCell>
        <mxCell id="m1klk2LPo-NgVJAAAtqn-22" value="Index Order&lt;div&gt;&lt;ul&gt;&lt;li&gt;Jane wants to&lt;/li&gt;&lt;li&gt;Buy SYDF for $300&lt;/li&gt;&lt;/ul&gt;&lt;/div&gt;" style="whiteSpace=wrap;html=1;shape=mxgraph.basic.document;align=left;spacingLeft=0;spacingTop=0;spacingRight=0;spacingBottom=0;spacing=10;verticalAlign=top;" parent="1" vertex="1">
          <mxGeometry x="375" y="750" width="190" height="90" as="geometry" />
        </mxCell>
        <mxCell id="m1klk2LPo-NgVJAAAtqn-23" value="Asset Order&lt;div&gt;&lt;ul&gt;&lt;li&gt;Buy MKR&lt;/li&gt;&lt;li&gt;in computed Quantity &amp;amp; Price&lt;/li&gt;&lt;/ul&gt;&lt;/div&gt;" style="whiteSpace=wrap;html=1;shape=mxgraph.basic.document;align=left;spacingLeft=0;spacingTop=0;spacingRight=0;spacingBottom=0;spacing=10;verticalAlign=top;" parent="1" vertex="1">
          <mxGeometry x="1090" y="750" width="222.5" height="92" as="geometry" />
        </mxCell>
        <mxCell id="m1klk2LPo-NgVJAAAtqn-24" value="..." style="text;html=1;align=center;verticalAlign=middle;resizable=0;points=[];autosize=1;strokeColor=none;fillColor=none;fontSize=40;rotation=90;" parent="1" vertex="1">
          <mxGeometry x="1171.25" y="640" width="60" height="60" as="geometry" />
        </mxCell>
        <mxCell id="m1klk2LPo-NgVJAAAtqn-33" style="rounded=0;orthogonalLoop=1;jettySize=auto;html=1;" parent="1" source="m1klk2LPo-NgVJAAAtqn-26" target="m1klk2LPo-NgVJAAAtqn-3" edge="1">
          <mxGeometry relative="1" as="geometry" />
        </mxCell>
        <mxCell id="m1klk2LPo-NgVJAAAtqn-26" value="Mary" style="shape=umlActor;verticalLabelPosition=bottom;verticalAlign=top;html=1;" parent="1" vertex="1">
          <mxGeometry x="120" y="350" width="30" height="60" as="geometry" />
        </mxCell>
        <mxCell id="m1klk2LPo-NgVJAAAtqn-32" style="rounded=0;orthogonalLoop=1;jettySize=auto;html=1;" parent="1" source="m1klk2LPo-NgVJAAAtqn-27" target="m1klk2LPo-NgVJAAAtqn-20" edge="1">
          <mxGeometry relative="1" as="geometry" />
        </mxCell>
        <mxCell id="m1klk2LPo-NgVJAAAtqn-27" value="Bob" style="shape=umlActor;verticalLabelPosition=bottom;verticalAlign=top;html=1;" parent="1" vertex="1">
          <mxGeometry x="180" y="470" width="30" height="60" as="geometry" />
        </mxCell>
        <mxCell id="m1klk2LPo-NgVJAAAtqn-31" style="rounded=0;orthogonalLoop=1;jettySize=auto;html=1;" parent="1" source="m1klk2LPo-NgVJAAAtqn-28" target="m1klk2LPo-NgVJAAAtqn-21" edge="1">
          <mxGeometry relative="1" as="geometry" />
        </mxCell>
        <mxCell id="m1klk2LPo-NgVJAAAtqn-28" value="John" style="shape=umlActor;verticalLabelPosition=bottom;verticalAlign=top;html=1;" parent="1" vertex="1">
          <mxGeometry x="120" y="580" width="30" height="60" as="geometry" />
        </mxCell>
        <mxCell id="m1klk2LPo-NgVJAAAtqn-30" style="rounded=0;orthogonalLoop=1;jettySize=auto;html=1;" parent="1" source="m1klk2LPo-NgVJAAAtqn-29" target="m1klk2LPo-NgVJAAAtqn-22" edge="1">
          <mxGeometry relative="1" as="geometry" />
        </mxCell>
        <mxCell id="m1klk2LPo-NgVJAAAtqn-29" value="Jane" style="shape=umlActor;verticalLabelPosition=bottom;verticalAlign=top;html=1;" parent="1" vertex="1">
          <mxGeometry x="180" y="710" width="30" height="60" as="geometry" />
        </mxCell>
        <mxCell id="m1klk2LPo-NgVJAAAtqn-35" value="Binance" style="ellipse;shape=cloud;whiteSpace=wrap;html=1;fillColor=#f5f5f5;fontColor=#333333;strokeColor=#666666;" parent="1" vertex="1">
          <mxGeometry x="1520" y="320" width="260" height="240" as="geometry" />
        </mxCell>
        <mxCell id="m1klk2LPo-NgVJAAAtqn-37" value="" style="endArrow=classic;html=1;rounded=0;strokeWidth=1;shape=flexArrow;width=15;endSize=6.67;fillColor=#e51400;strokeColor=#B20000;" parent="1" edge="1">
          <mxGeometry width="50" height="50" relative="1" as="geometry">
            <mxPoint x="1200" y="970" as="sourcePoint" />
            <mxPoint x="480" y="970" as="targetPoint" />
          </mxGeometry>
        </mxCell>
        <mxCell id="m1klk2LPo-NgVJAAAtqn-38" value="&lt;h2&gt;Fills&lt;/h2&gt;" style="edgeLabel;html=1;align=center;verticalAlign=middle;resizable=0;points=[];labelBackgroundColor=none;" parent="m1klk2LPo-NgVJAAAtqn-37" vertex="1" connectable="0">
          <mxGeometry x="0.1913" y="-1" relative="1" as="geometry">
            <mxPoint x="59" y="-19" as="offset" />
          </mxGeometry>
        </mxCell>
        <mxCell id="qopQVtUAeO4iKsc5CxkG-2" style="rounded=0;orthogonalLoop=1;jettySize=auto;html=1;shape=flexArrow;endSize=10;startSize=10;targetPerimeterSpacing=10;sourcePerimeterSpacing=10;width=40;fillColor=#e51400;strokeColor=#B20000;" parent="1" source="m1klk2LPo-NgVJAAAtqn-16" target="qopQVtUAeO4iKsc5CxkG-3" edge="1">
          <mxGeometry relative="1" as="geometry">
            <mxPoint x="1380" y="677" as="sourcePoint" />
            <mxPoint x="1526.963546177918" y="699.5106444889318" as="targetPoint" />
          </mxGeometry>
        </mxCell>
        <mxCell id="qopQVtUAeO4iKsc5CxkG-3" value="Bitget" style="ellipse;shape=cloud;whiteSpace=wrap;html=1;fillColor=#f5f5f5;fontColor=#333333;strokeColor=#666666;" parent="1" vertex="1">
          <mxGeometry x="1520" y="602" width="260" height="240" as="geometry" />
        </mxCell>
      </root>
    </mxGraphModel>
  </diagram>
</mxfile>
